<?xml version="1.0" encoding="utf-8"?>
<!-- Generator: Adobe Illustrator 24.0.2, SVG Export Plug-In . SVG Version: 6.00 Build 0)  -->
<svg version="1.1" id="Layer_1" xmlns="http://www.w3.org/2000/svg" xmlns:xlink="http://www.w3.org/1999/xlink" x="0px" y="0px"
	 viewBox="0 0 24 24" style="enable-background:new 0 0 24 24;" xml:space="preserve">
<style type="text/css">
	.st0{fill:#FFFFFF;}
</style>
<path class="st0" d="M21.4,18.6L24,16v8h-8l2.6-2.6l-5.2-5.2l2.8-2.8C16.2,13.4,21.4,18.6,21.4,18.6z M7.8,10.6l2.8-2.8L5.4,2.6L8,0
	H0v8l2.6-2.6L7.8,10.6z M18.6,2.6L16,0h8v8l-2.6-2.6l-5.2,5.2l-2.8-2.8C13.4,7.8,18.6,2.6,18.6,2.6z M10.6,16.2l-2.8-2.8l-5.2,5.2
	L0,16v8h8l-2.6-2.6L10.6,16.2z"/>
</svg>
